<svg xmlns="http://www.w3.org/2000/svg" width="2289.5153906250007" height="900.0"><line x1="30.0" x2="2259.5153906250007" y1="25.0" y2="25.0" stroke="#1967d2" stroke-width="1" /><line x1="30.0" x2="2259.5153906250007" y1="75.0" y2="75.0" stroke="#1967d2" stroke-width="1" /><line x1="30.0" x2="2259.5153906250007" y1="125.0" y2="125.0" stroke="#1967d2" stroke-width="1" /><line x1="30.0" x2="2259.5153906250007" y1="175.0" y2="175.0" stroke="#1967d2" stroke-width="1" /><line x1="30.0" x2="2259.5153906250007" y1="225.0" y2="225.0" stroke="#1967d2" stroke-width="1" /><line x1="30.0" x2="2259.5153906250007" y1="275.0" y2="275.0" stroke="#1967d2" stroke-width="1" /><line x1="30.0" x2="2259.5153906250007" y1="325.0" y2="325.0" stroke="#1967d2" stroke-width="1" /><line x1="30.0" x2="2259.5153906250007" y1="375.0" y2="375.0" stroke="#1967d2" stroke-width="1" /><line x1="30.0" x2="2259.5153906250007" y1="425.0" y2="425.0" stroke="#1967d2" stroke-width="1" /><line x1="30.0" x2="2259.5153906250007" y1="475.0" y2="475.0" stroke="#1967d2" stroke-width="1" /><line x1="30.0" x2="2259.5153906250007" y1="525.0" y2="525.0" stroke="#1967d2" stroke-width="1" /><line x1="30.0" x2="2259.5153906250007" y1="575.0" y2="575.0" stroke="#1967d2" stroke-width="1" /><line x1="30.0" x2="2259.5153906250007" y1="625.0" y2="625.0" stroke="#1967d2" stroke-width="1" /><line x1="30.0" x2="2259.5153906250007" y1="675.0" y2="675.0" stroke="#1967d2" stroke-width="1" /><line x1="30.0" x2="2259.5153906250007" y1="725.0" y2="725.0" stroke="#1967d2" stroke-width="1" /><line x1="30.0" x2="2259.5153906250007" y1="775.0" y2="775.0" stroke="#1967d2" stroke-width="1" /><line x1="30.0" x2="2259.5153906250007" y1="825.0" y2="825.0" stroke="#1967d2" stroke-width="1" /><line x1="30.0" x2="2259.5153906250007" y1="875.0" y2="875.0" stroke="#1967d2" stroke-width="1" /><line x1="195.64703125" x2="195.64703125" y1="25.0" y2="75.0" stroke="black" stroke-width="3" /><line x1="274.01693359375" x2="274.01693359375" y1="75.0" y2="125.0" stroke="black" stroke-width="3" /><line x1="370.75673828125" x2="370.75673828125" y1="125.0" y2="175.0" stroke="black" stroke-width="3" /><line x1="467.49654296875" x2="467.49654296875" y1="175.0" y2="225.0" stroke="black" stroke-width="3" /><line x1="467.49654296875" x2="467.49654296875" y1="25.0" y2="75.0" stroke="black" stroke-width="3" /><line x1="564.23634765625" x2="564.23634765625" y1="225.0" y2="275.0" stroke="black" stroke-width="3" /><line x1="564.23634765625" x2="564.23634765625" y1="75.0" y2="125.0" stroke="black" stroke-width="3" /><line x1="660.9761523437501" x2="660.9761523437501" y1="275.0" y2="325.0" stroke="black" stroke-width="3" /><line x1="660.9761523437501" x2="660.9761523437501" y1="125.0" y2="175.0" stroke="black" stroke-width="3" /><line x1="757.7159570312501" x2="757.7159570312501" y1="325.0" y2="375.0" stroke="black" stroke-width="3" /><line x1="757.7159570312501" x2="757.7159570312501" y1="175.0" y2="225.0" stroke="black" stroke-width="3" /><line x1="854.4557617187502" x2="854.4557617187502" y1="375.0" y2="425.0" stroke="black" stroke-width="3" /><line x1="854.4557617187502" x2="854.4557617187502" y1="225.0" y2="275.0" stroke="black" stroke-width="3" /><line x1="951.1955664062502" x2="951.1955664062502" y1="425.0" y2="475.0" stroke="black" stroke-width="3" /><line x1="951.1955664062502" x2="951.1955664062502" y1="275.0" y2="325.0" stroke="black" stroke-width="3" /><line x1="1047.9353710937503" x2="1047.9353710937503" y1="475.0" y2="525.0" stroke="black" stroke-width="3" /><line x1="1047.9353710937503" x2="1047.9353710937503" y1="325.0" y2="375.0" stroke="black" stroke-width="3" /><line x1="1144.6751757812503" x2="1144.6751757812503" y1="525.0" y2="575.0" stroke="black" stroke-width="3" /><line x1="1144.6751757812503" x2="1144.6751757812503" y1="375.0" y2="425.0" stroke="black" stroke-width="3" /><line x1="1245.8685937500004" x2="1245.8685937500004" y1="575.0" y2="625.0" stroke="black" stroke-width="3" /><line x1="1245.8685937500004" x2="1245.8685937500004" y1="425.0" y2="475.0" stroke="black" stroke-width="3" /><line x1="1351.5156250000005" x2="1351.5156250000005" y1="625.0" y2="675.0" stroke="black" stroke-width="3" /><line x1="1351.5156250000005" x2="1351.5156250000005" y1="475.0" y2="525.0" stroke="black" stroke-width="3" /><line x1="1457.1626562500005" x2="1457.1626562500005" y1="675.0" y2="725.0" stroke="black" stroke-width="3" /><line x1="1457.1626562500005" x2="1457.1626562500005" y1="525.0" y2="575.0" stroke="black" stroke-width="3" /><line x1="1562.8096875000006" x2="1562.8096875000006" y1="725.0" y2="775.0" stroke="black" stroke-width="3" /><line x1="1562.8096875000006" x2="1562.8096875000006" y1="575.0" y2="625.0" stroke="black" stroke-width="3" /><line x1="1668.4567187500006" x2="1668.4567187500006" y1="775.0" y2="825.0" stroke="black" stroke-width="3" /><line x1="1668.4567187500006" x2="1668.4567187500006" y1="625.0" y2="675.0" stroke="black" stroke-width="3" /><line x1="1774.1037500000007" x2="1774.1037500000007" y1="825.0" y2="875.0" stroke="black" stroke-width="3" /><line x1="1774.1037500000007" x2="1774.1037500000007" y1="675.0" y2="725.0" stroke="black" stroke-width="3" /><line x1="1879.7507812500007" x2="1879.7507812500007" y1="725.0" y2="775.0" stroke="black" stroke-width="3" /><line x1="1985.3978125000008" x2="1985.3978125000008" y1="775.0" y2="825.0" stroke="black" stroke-width="3" /><line x1="2091.044843750001" x2="2091.044843750001" y1="825.0" y2="875.0" stroke="black" stroke-width="3" /><rect x="10.0" y="5.0" width="40" height="40" stroke="black" fill="white" stroke-width="0" /><text x="30.0" y="25.0" dominant-baseline="middle" text-anchor="middle" font-size="14px" font-family="sans\-serif:style=normal:variant=normal:weight=normal:stretch=normal:size=10.0">0: </text><rect x="10.0" y="55.0" width="40" height="40" stroke="black" fill="white" stroke-width="0" /><text x="30.0" y="75.0" dominant-baseline="middle" text-anchor="middle" font-size="14px" font-family="sans\-serif:style=normal:variant=normal:weight=normal:stretch=normal:size=10.0">1: </text><rect x="10.0" y="105.0" width="40" height="40" stroke="black" fill="white" stroke-width="0" /><text x="30.0" y="125.0" dominant-baseline="middle" text-anchor="middle" font-size="14px" font-family="sans\-serif:style=normal:variant=normal:weight=normal:stretch=normal:size=10.0">2: </text><rect x="10.0" y="155.0" width="40" height="40" stroke="black" fill="white" stroke-width="0" /><text x="30.0" y="175.0" dominant-baseline="middle" text-anchor="middle" font-size="14px" font-family="sans\-serif:style=normal:variant=normal:weight=normal:stretch=normal:size=10.0">3: </text><rect x="10.0" y="205.0" width="40" height="40" stroke="black" fill="white" stroke-width="0" /><text x="30.0" y="225.0" dominant-baseline="middle" text-anchor="middle" font-size="14px" font-family="sans\-serif:style=normal:variant=normal:weight=normal:stretch=normal:size=10.0">4: </text><rect x="10.0" y="255.0" width="40" height="40" stroke="black" fill="white" stroke-width="0" /><text x="30.0" y="275.0" dominant-baseline="middle" text-anchor="middle" font-size="14px" font-family="sans\-serif:style=normal:variant=normal:weight=normal:stretch=normal:size=10.0">5: </text><rect x="10.0" y="305.0" width="40" height="40" stroke="black" fill="white" stroke-width="0" /><text x="30.0" y="325.0" dominant-baseline="middle" text-anchor="middle" font-size="14px" font-family="sans\-serif:style=normal:variant=normal:weight=normal:stretch=normal:size=10.0">6: </text><rect x="10.0" y="355.0" width="40" height="40" stroke="black" fill="white" stroke-width="0" /><text x="30.0" y="375.0" dominant-baseline="middle" text-anchor="middle" font-size="14px" font-family="sans\-serif:style=normal:variant=normal:weight=normal:stretch=normal:size=10.0">7: </text><rect x="10.0" y="405.0" width="40" height="40" stroke="black" fill="white" stroke-width="0" /><text x="30.0" y="425.0" dominant-baseline="middle" text-anchor="middle" font-size="14px" font-family="sans\-serif:style=normal:variant=normal:weight=normal:stretch=normal:size=10.0">8: </text><rect x="10.0" y="455.0" width="40" height="40" stroke="black" fill="white" stroke-width="0" /><text x="30.0" y="475.0" dominant-baseline="middle" text-anchor="middle" font-size="14px" font-family="sans\-serif:style=normal:variant=normal:weight=normal:stretch=normal:size=10.0">9: </text><rect x="10.0" y="505.0" width="40" height="40" stroke="black" fill="white" stroke-width="0" /><text x="30.0" y="525.0" dominant-baseline="middle" text-anchor="middle" font-size="14px" font-family="sans\-serif:style=normal:variant=normal:weight=normal:stretch=normal:size=10.0">10: </text><rect x="10.0" y="555.0" width="40" height="40" stroke="black" fill="white" stroke-width="0" /><text x="30.0" y="575.0" dominant-baseline="middle" text-anchor="middle" font-size="14px" font-family="sans\-serif:style=normal:variant=normal:weight=normal:stretch=normal:size=10.0">11: </text><rect x="10.0" y="605.0" width="40" height="40" stroke="black" fill="white" stroke-width="0" /><text x="30.0" y="625.0" dominant-baseline="middle" text-anchor="middle" font-size="14px" font-family="sans\-serif:style=normal:variant=normal:weight=normal:stretch=normal:size=10.0">12: </text><rect x="10.0" y="655.0" width="40" height="40" stroke="black" fill="white" stroke-width="0" /><text x="30.0" y="675.0" dominant-baseline="middle" text-anchor="middle" font-size="14px" font-family="sans\-serif:style=normal:variant=normal:weight=normal:stretch=normal:size=10.0">13: </text><rect x="10.0" y="705.0" width="40" height="40" stroke="black" fill="white" stroke-width="0" /><text x="30.0" y="725.0" dominant-baseline="middle" text-anchor="middle" font-size="14px" font-family="sans\-serif:style=normal:variant=normal:weight=normal:stretch=normal:size=10.0">14: </text><rect x="10.0" y="755.0" width="40" height="40" stroke="black" fill="white" stroke-width="0" /><text x="30.0" y="775.0" dominant-baseline="middle" text-anchor="middle" font-size="14px" font-family="sans\-serif:style=normal:variant=normal:weight=normal:stretch=normal:size=10.0">15: </text><rect x="10.0" y="805.0" width="40" height="40" stroke="black" fill="white" stroke-width="0" /><text x="30.0" y="825.0" dominant-baseline="middle" text-anchor="middle" font-size="14px" font-family="sans\-serif:style=normal:variant=normal:weight=normal:stretch=normal:size=10.0">16: </text><rect x="10.0" y="855.0" width="40" height="40" stroke="black" fill="white" stroke-width="0" /><text x="30.0" y="875.0" dominant-baseline="middle" text-anchor="middle" font-size="14px" font-family="sans\-serif:style=normal:variant=normal:weight=normal:stretch=normal:size=10.0">17: </text><rect x="70.0" y="5.0" width="85.64703125000001" height="40" stroke="black" fill="white" stroke-width="1" /><text x="112.823515625" y="25.0" dominant-baseline="middle" text-anchor="middle" font-size="14px" font-family="sans\-serif:style=normal:variant=normal:weight=normal:stretch=normal:size=10.0">Rx(θ_0_0)</text><rect x="70.0" y="55.0" width="85.64703125000001" height="40" stroke="black" fill="white" stroke-width="1" /><text x="112.823515625" y="75.0" dominant-baseline="middle" text-anchor="middle" font-size="14px" font-family="sans\-serif:style=normal:variant=normal:weight=normal:stretch=normal:size=10.0">Rx(θ_0_1)</text><rect x="70.0" y="105.0" width="85.64703125000001" height="40" stroke="black" fill="white" stroke-width="1" /><text x="112.823515625" y="125.0" dominant-baseline="middle" text-anchor="middle" font-size="14px" font-family="sans\-serif:style=normal:variant=normal:weight=normal:stretch=normal:size=10.0">Rx(θ_0_2)</text><rect x="70.0" y="155.0" width="85.64703125000001" height="40" stroke="black" fill="white" stroke-width="1" /><text x="112.823515625" y="175.0" dominant-baseline="middle" text-anchor="middle" font-size="14px" font-family="sans\-serif:style=normal:variant=normal:weight=normal:stretch=normal:size=10.0">Rx(θ_0_3)</text><rect x="70.0" y="205.0" width="85.64703125000001" height="40" stroke="black" fill="white" stroke-width="1" /><text x="112.823515625" y="225.0" dominant-baseline="middle" text-anchor="middle" font-size="14px" font-family="sans\-serif:style=normal:variant=normal:weight=normal:stretch=normal:size=10.0">Rx(θ_0_4)</text><rect x="70.0" y="255.0" width="85.64703125000001" height="40" stroke="black" fill="white" stroke-width="1" /><text x="112.823515625" y="275.0" dominant-baseline="middle" text-anchor="middle" font-size="14px" font-family="sans\-serif:style=normal:variant=normal:weight=normal:stretch=normal:size=10.0">Rx(θ_0_5)</text><rect x="70.0" y="305.0" width="85.64703125000001" height="40" stroke="black" fill="white" stroke-width="1" /><text x="112.823515625" y="325.0" dominant-baseline="middle" text-anchor="middle" font-size="14px" font-family="sans\-serif:style=normal:variant=normal:weight=normal:stretch=normal:size=10.0">Rx(θ_0_6)</text><rect x="70.0" y="355.0" width="85.64703125000001" height="40" stroke="black" fill="white" stroke-width="1" /><text x="112.823515625" y="375.0" dominant-baseline="middle" text-anchor="middle" font-size="14px" font-family="sans\-serif:style=normal:variant=normal:weight=normal:stretch=normal:size=10.0">Rx(θ_0_7)</text><rect x="70.0" y="405.0" width="85.64703125000001" height="40" stroke="black" fill="white" stroke-width="1" /><text x="112.823515625" y="425.0" dominant-baseline="middle" text-anchor="middle" font-size="14px" font-family="sans\-serif:style=normal:variant=normal:weight=normal:stretch=normal:size=10.0">Rx(θ_0_8)</text><rect x="70.0" y="455.0" width="85.64703125000001" height="40" stroke="black" fill="white" stroke-width="1" /><text x="112.823515625" y="475.0" dominant-baseline="middle" text-anchor="middle" font-size="14px" font-family="sans\-serif:style=normal:variant=normal:weight=normal:stretch=normal:size=10.0">Rx(θ_0_9)</text><rect x="70.0" y="505.0" width="85.64703125000001" height="40" stroke="black" fill="white" stroke-width="1" /><text x="112.823515625" y="525.0" dominant-baseline="middle" text-anchor="middle" font-size="14px" font-family="sans\-serif:style=normal:variant=normal:weight=normal:stretch=normal:size=10.0">Rx(θ_0_10)</text><rect x="70.0" y="555.0" width="85.64703125000001" height="40" stroke="black" fill="white" stroke-width="1" /><text x="112.823515625" y="575.0" dominant-baseline="middle" text-anchor="middle" font-size="14px" font-family="sans\-serif:style=normal:variant=normal:weight=normal:stretch=normal:size=10.0">Rx(θ_0_11)</text><rect x="70.0" y="605.0" width="85.64703125000001" height="40" stroke="black" fill="white" stroke-width="1" /><text x="112.823515625" y="625.0" dominant-baseline="middle" text-anchor="middle" font-size="14px" font-family="sans\-serif:style=normal:variant=normal:weight=normal:stretch=normal:size=10.0">Rx(θ_0_12)</text><rect x="70.0" y="655.0" width="85.64703125000001" height="40" stroke="black" fill="white" stroke-width="1" /><text x="112.823515625" y="675.0" dominant-baseline="middle" text-anchor="middle" font-size="14px" font-family="sans\-serif:style=normal:variant=normal:weight=normal:stretch=normal:size=10.0">Rx(θ_0_13)</text><rect x="70.0" y="705.0" width="85.64703125000001" height="40" stroke="black" fill="white" stroke-width="1" /><text x="112.823515625" y="725.0" dominant-baseline="middle" text-anchor="middle" font-size="14px" font-family="sans\-serif:style=normal:variant=normal:weight=normal:stretch=normal:size=10.0">Rx(θ_0_14)</text><rect x="70.0" y="755.0" width="85.64703125000001" height="40" stroke="black" fill="white" stroke-width="1" /><text x="112.823515625" y="775.0" dominant-baseline="middle" text-anchor="middle" font-size="14px" font-family="sans\-serif:style=normal:variant=normal:weight=normal:stretch=normal:size=10.0">Rx(θ_0_15)</text><rect x="70.0" y="805.0" width="85.64703125000001" height="40" stroke="black" fill="white" stroke-width="1" /><text x="112.823515625" y="825.0" dominant-baseline="middle" text-anchor="middle" font-size="14px" font-family="sans\-serif:style=normal:variant=normal:weight=normal:stretch=normal:size=10.0">Rx(θ_0_16)</text><rect x="70.0" y="855.0" width="85.64703125000001" height="40" stroke="black" fill="white" stroke-width="1" /><text x="112.823515625" y="875.0" dominant-baseline="middle" text-anchor="middle" font-size="14px" font-family="sans\-serif:style=normal:variant=normal:weight=normal:stretch=normal:size=10.0">Rx(θ_0_17)</text><circle cx="195.64703125" cy="25.0" r="10.0" /><circle cx="195.64703125" cy="75.0" r="10.0" /><circle cx="274.01693359375" cy="75.0" r="10.0" /><circle cx="274.01693359375" cy="125.0" r="10.0" /><rect x="235.64703125000003" y="5.0" width="76.73980468750001" height="40" stroke="black" fill="white" stroke-width="1" /><text x="274.01693359375" y="25.0" dominant-baseline="middle" text-anchor="middle" font-size="14px" font-family="sans\-serif:style=normal:variant=normal:weight=normal:stretch=normal:size=10.0">Rx(θ_1_0)</text><circle cx="370.75673828125" cy="125.0" r="10.0" /><circle cx="370.75673828125" cy="175.0" r="10.0" /><rect x="332.3868359375" y="55.0" width="76.73980468750001" height="40" stroke="black" fill="white" stroke-width="1" /><text x="370.75673828125" y="75.0" dominant-baseline="middle" text-anchor="middle" font-size="14px" font-family="sans\-serif:style=normal:variant=normal:weight=normal:stretch=normal:size=10.0">Rx(θ_1_1)</text><circle cx="467.49654296875" cy="175.0" r="10.0" /><circle cx="467.49654296875" cy="225.0" r="10.0" /><rect x="429.126640625" y="105.0" width="76.73980468750001" height="40" stroke="black" fill="white" stroke-width="1" /><text x="467.49654296875" y="125.0" dominant-baseline="middle" text-anchor="middle" font-size="14px" font-family="sans\-serif:style=normal:variant=normal:weight=normal:stretch=normal:size=10.0">Rx(θ_1_2)</text><circle cx="467.49654296875" cy="25.0" r="10.0" /><circle cx="467.49654296875" cy="75.0" r="10.0" /><circle cx="564.23634765625" cy="225.0" r="10.0" /><circle cx="564.23634765625" cy="275.0" r="10.0" /><rect x="525.8664453125" y="155.0" width="76.73980468750001" height="40" stroke="black" fill="white" stroke-width="1" /><text x="564.23634765625" y="175.0" dominant-baseline="middle" text-anchor="middle" font-size="14px" font-family="sans\-serif:style=normal:variant=normal:weight=normal:stretch=normal:size=10.0">Rx(θ_1_3)</text><circle cx="564.23634765625" cy="75.0" r="10.0" /><circle cx="564.23634765625" cy="125.0" r="10.0" /><rect x="525.8664453125" y="5.0" width="76.73980468750001" height="40" stroke="black" fill="white" stroke-width="1" /><text x="564.23634765625" y="25.0" dominant-baseline="middle" text-anchor="middle" font-size="14px" font-family="sans\-serif:style=normal:variant=normal:weight=normal:stretch=normal:size=10.0">Rx(θ_2_0)</text><circle cx="660.9761523437501" cy="275.0" r="10.0" /><circle cx="660.9761523437501" cy="325.0" r="10.0" /><rect x="622.60625" y="205.0" width="76.73980468750001" height="40" stroke="black" fill="white" stroke-width="1" /><text x="660.9761523437501" y="225.0" dominant-baseline="middle" text-anchor="middle" font-size="14px" font-family="sans\-serif:style=normal:variant=normal:weight=normal:stretch=normal:size=10.0">Rx(θ_1_4)</text><circle cx="660.9761523437501" cy="125.0" r="10.0" /><circle cx="660.9761523437501" cy="175.0" r="10.0" /><rect x="622.60625" y="55.0" width="76.73980468750001" height="40" stroke="black" fill="white" stroke-width="1" /><text x="660.9761523437501" y="75.0" dominant-baseline="middle" text-anchor="middle" font-size="14px" font-family="sans\-serif:style=normal:variant=normal:weight=normal:stretch=normal:size=10.0">Rx(θ_2_1)</text><circle cx="757.7159570312501" cy="325.0" r="10.0" /><circle cx="757.7159570312501" cy="375.0" r="10.0" /><rect x="719.3460546875001" y="255.0" width="76.73980468750001" height="40" stroke="black" fill="white" stroke-width="1" /><text x="757.7159570312501" y="275.0" dominant-baseline="middle" text-anchor="middle" font-size="14px" font-family="sans\-serif:style=normal:variant=normal:weight=normal:stretch=normal:size=10.0">Rx(θ_1_5)</text><circle cx="757.7159570312501" cy="175.0" r="10.0" /><circle cx="757.7159570312501" cy="225.0" r="10.0" /><rect x="719.3460546875001" y="105.0" width="76.73980468750001" height="40" stroke="black" fill="white" stroke-width="1" /><text x="757.7159570312501" y="125.0" dominant-baseline="middle" text-anchor="middle" font-size="14px" font-family="sans\-serif:style=normal:variant=normal:weight=normal:stretch=normal:size=10.0">Rx(θ_2_2)</text><circle cx="854.4557617187502" cy="375.0" r="10.0" /><circle cx="854.4557617187502" cy="425.0" r="10.0" /><rect x="816.0858593750002" y="305.0" width="76.73980468750001" height="40" stroke="black" fill="white" stroke-width="1" /><text x="854.4557617187502" y="325.0" dominant-baseline="middle" text-anchor="middle" font-size="14px" font-family="sans\-serif:style=normal:variant=normal:weight=normal:stretch=normal:size=10.0">Rx(θ_1_6)</text><circle cx="854.4557617187502" cy="225.0" r="10.0" /><circle cx="854.4557617187502" cy="275.0" r="10.0" /><rect x="816.0858593750002" y="155.0" width="76.73980468750001" height="40" stroke="black" fill="white" stroke-width="1" /><text x="854.4557617187502" y="175.0" dominant-baseline="middle" text-anchor="middle" font-size="14px" font-family="sans\-serif:style=normal:variant=normal:weight=normal:stretch=normal:size=10.0">Rx(θ_2_3)</text><circle cx="951.1955664062502" cy="425.0" r="10.0" /><circle cx="951.1955664062502" cy="475.0" r="10.0" /><rect x="912.8256640625002" y="355.0" width="76.73980468750001" height="40" stroke="black" fill="white" stroke-width="1" /><text x="951.1955664062502" y="375.0" dominant-baseline="middle" text-anchor="middle" font-size="14px" font-family="sans\-serif:style=normal:variant=normal:weight=normal:stretch=normal:size=10.0">Rx(θ_1_7)</text><circle cx="951.1955664062502" cy="275.0" r="10.0" /><circle cx="951.1955664062502" cy="325.0" r="10.0" /><rect x="912.8256640625002" y="205.0" width="76.73980468750001" height="40" stroke="black" fill="white" stroke-width="1" /><text x="951.1955664062502" y="225.0" dominant-baseline="middle" text-anchor="middle" font-size="14px" font-family="sans\-serif:style=normal:variant=normal:weight=normal:stretch=normal:size=10.0">Rx(θ_2_4)</text><circle cx="1047.9353710937503" cy="475.0" r="10.0" /><circle cx="1047.9353710937503" cy="525.0" r="10.0" /><rect x="1009.5654687500003" y="405.0" width="76.73980468750001" height="40" stroke="black" fill="white" stroke-width="1" /><text x="1047.9353710937503" y="425.0" dominant-baseline="middle" text-anchor="middle" font-size="14px" font-family="sans\-serif:style=normal:variant=normal:weight=normal:stretch=normal:size=10.0">Rx(θ_1_8)</text><circle cx="1047.9353710937503" cy="325.0" r="10.0" /><circle cx="1047.9353710937503" cy="375.0" r="10.0" /><rect x="1009.5654687500003" y="255.0" width="76.73980468750001" height="40" stroke="black" fill="white" stroke-width="1" /><text x="1047.9353710937503" y="275.0" dominant-baseline="middle" text-anchor="middle" font-size="14px" font-family="sans\-serif:style=normal:variant=normal:weight=normal:stretch=normal:size=10.0">Rx(θ_2_5)</text><circle cx="1144.6751757812503" cy="525.0" r="10.0" /><circle cx="1144.6751757812503" cy="575.0" r="10.0" /><rect x="1106.3052734375003" y="455.0" width="76.73980468750001" height="40" stroke="black" fill="white" stroke-width="1" /><text x="1144.6751757812503" y="475.0" dominant-baseline="middle" text-anchor="middle" font-size="14px" font-family="sans\-serif:style=normal:variant=normal:weight=normal:stretch=normal:size=10.0">Rx(θ_1_9)</text><circle cx="1144.6751757812503" cy="375.0" r="10.0" /><circle cx="1144.6751757812503" cy="425.0" r="10.0" /><rect x="1106.3052734375003" y="305.0" width="76.73980468750001" height="40" stroke="black" fill="white" stroke-width="1" /><text x="1144.6751757812503" y="325.0" dominant-baseline="middle" text-anchor="middle" font-size="14px" font-family="sans\-serif:style=normal:variant=normal:weight=normal:stretch=normal:size=10.0">Rx(θ_2_6)</text><circle cx="1245.8685937500004" cy="575.0" r="10.0" /><circle cx="1245.8685937500004" cy="625.0" r="10.0" /><rect x="1203.0450781250004" y="505.0" width="85.64703125000001" height="40" stroke="black" fill="white" stroke-width="1" /><text x="1245.8685937500004" y="525.0" dominant-baseline="middle" text-anchor="middle" font-size="14px" font-family="sans\-serif:style=normal:variant=normal:weight=normal:stretch=normal:size=10.0">Rx(θ_1_10)</text><circle cx="1245.8685937500004" cy="425.0" r="10.0" /><circle cx="1245.8685937500004" cy="475.0" r="10.0" /><rect x="1203.0450781250004" y="355.0" width="85.64703125000001" height="40" stroke="black" fill="white" stroke-width="1" /><text x="1245.8685937500004" y="375.0" dominant-baseline="middle" text-anchor="middle" font-size="14px" font-family="sans\-serif:style=normal:variant=normal:weight=normal:stretch=normal:size=10.0">Rx(θ_2_7)</text><circle cx="1351.5156250000005" cy="625.0" r="10.0" /><circle cx="1351.5156250000005" cy="675.0" r="10.0" /><rect x="1308.6921093750004" y="555.0" width="85.64703125000001" height="40" stroke="black" fill="white" stroke-width="1" /><text x="1351.5156250000005" y="575.0" dominant-baseline="middle" text-anchor="middle" font-size="14px" font-family="sans\-serif:style=normal:variant=normal:weight=normal:stretch=normal:size=10.0">Rx(θ_1_11)</text><circle cx="1351.5156250000005" cy="475.0" r="10.0" /><circle cx="1351.5156250000005" cy="525.0" r="10.0" /><rect x="1308.6921093750004" y="405.0" width="85.64703125000001" height="40" stroke="black" fill="white" stroke-width="1" /><text x="1351.5156250000005" y="425.0" dominant-baseline="middle" text-anchor="middle" font-size="14px" font-family="sans\-serif:style=normal:variant=normal:weight=normal:stretch=normal:size=10.0">Rx(θ_2_8)</text><circle cx="1457.1626562500005" cy="675.0" r="10.0" /><circle cx="1457.1626562500005" cy="725.0" r="10.0" /><rect x="1414.3391406250005" y="605.0" width="85.64703125000001" height="40" stroke="black" fill="white" stroke-width="1" /><text x="1457.1626562500005" y="625.0" dominant-baseline="middle" text-anchor="middle" font-size="14px" font-family="sans\-serif:style=normal:variant=normal:weight=normal:stretch=normal:size=10.0">Rx(θ_1_12)</text><circle cx="1457.1626562500005" cy="525.0" r="10.0" /><circle cx="1457.1626562500005" cy="575.0" r="10.0" /><rect x="1414.3391406250005" y="455.0" width="85.64703125000001" height="40" stroke="black" fill="white" stroke-width="1" /><text x="1457.1626562500005" y="475.0" dominant-baseline="middle" text-anchor="middle" font-size="14px" font-family="sans\-serif:style=normal:variant=normal:weight=normal:stretch=normal:size=10.0">Rx(θ_2_9)</text><circle cx="1562.8096875000006" cy="725.0" r="10.0" /><circle cx="1562.8096875000006" cy="775.0" r="10.0" /><rect x="1519.9861718750005" y="655.0" width="85.64703125000001" height="40" stroke="black" fill="white" stroke-width="1" /><text x="1562.8096875000006" y="675.0" dominant-baseline="middle" text-anchor="middle" font-size="14px" font-family="sans\-serif:style=normal:variant=normal:weight=normal:stretch=normal:size=10.0">Rx(θ_1_13)</text><circle cx="1562.8096875000006" cy="575.0" r="10.0" /><circle cx="1562.8096875000006" cy="625.0" r="10.0" /><rect x="1519.9861718750005" y="505.0" width="85.64703125000001" height="40" stroke="black" fill="white" stroke-width="1" /><text x="1562.8096875000006" y="525.0" dominant-baseline="middle" text-anchor="middle" font-size="14px" font-family="sans\-serif:style=normal:variant=normal:weight=normal:stretch=normal:size=10.0">Rx(θ_2_10)</text><circle cx="1668.4567187500006" cy="775.0" r="10.0" /><circle cx="1668.4567187500006" cy="825.0" r="10.0" /><rect x="1625.6332031250006" y="705.0" width="85.64703125000001" height="40" stroke="black" fill="white" stroke-width="1" /><text x="1668.4567187500006" y="725.0" dominant-baseline="middle" text-anchor="middle" font-size="14px" font-family="sans\-serif:style=normal:variant=normal:weight=normal:stretch=normal:size=10.0">Rx(θ_1_14)</text><circle cx="1668.4567187500006" cy="625.0" r="10.0" /><circle cx="1668.4567187500006" cy="675.0" r="10.0" /><rect x="1625.6332031250006" y="555.0" width="85.64703125000001" height="40" stroke="black" fill="white" stroke-width="1" /><text x="1668.4567187500006" y="575.0" dominant-baseline="middle" text-anchor="middle" font-size="14px" font-family="sans\-serif:style=normal:variant=normal:weight=normal:stretch=normal:size=10.0">Rx(θ_2_11)</text><circle cx="1774.1037500000007" cy="825.0" r="10.0" /><circle cx="1774.1037500000007" cy="875.0" r="10.0" /><rect x="1731.2802343750006" y="755.0" width="85.64703125000001" height="40" stroke="black" fill="white" stroke-width="1" /><text x="1774.1037500000007" y="775.0" dominant-baseline="middle" text-anchor="middle" font-size="14px" font-family="sans\-serif:style=normal:variant=normal:weight=normal:stretch=normal:size=10.0">Rx(θ_1_15)</text><circle cx="1774.1037500000007" cy="675.0" r="10.0" /><circle cx="1774.1037500000007" cy="725.0" r="10.0" /><rect x="1731.2802343750006" y="605.0" width="85.64703125000001" height="40" stroke="black" fill="white" stroke-width="1" /><text x="1774.1037500000007" y="625.0" dominant-baseline="middle" text-anchor="middle" font-size="14px" font-family="sans\-serif:style=normal:variant=normal:weight=normal:stretch=normal:size=10.0">Rx(θ_2_12)</text><rect x="1836.9272656250007" y="805.0" width="85.64703125000001" height="40" stroke="black" fill="white" stroke-width="1" /><text x="1879.7507812500007" y="825.0" dominant-baseline="middle" text-anchor="middle" font-size="14px" font-family="sans\-serif:style=normal:variant=normal:weight=normal:stretch=normal:size=10.0">Rx(θ_1_16)</text><rect x="1836.9272656250007" y="855.0" width="85.64703125000001" height="40" stroke="black" fill="white" stroke-width="1" /><text x="1879.7507812500007" y="875.0" dominant-baseline="middle" text-anchor="middle" font-size="14px" font-family="sans\-serif:style=normal:variant=normal:weight=normal:stretch=normal:size=10.0">Rx(θ_1_17)</text><circle cx="1879.7507812500007" cy="725.0" r="10.0" /><circle cx="1879.7507812500007" cy="775.0" r="10.0" /><rect x="1836.9272656250007" y="655.0" width="85.64703125000001" height="40" stroke="black" fill="white" stroke-width="1" /><text x="1879.7507812500007" y="675.0" dominant-baseline="middle" text-anchor="middle" font-size="14px" font-family="sans\-serif:style=normal:variant=normal:weight=normal:stretch=normal:size=10.0">Rx(θ_2_13)</text><circle cx="1985.3978125000008" cy="775.0" r="10.0" /><circle cx="1985.3978125000008" cy="825.0" r="10.0" /><rect x="1942.5742968750008" y="705.0" width="85.64703125000001" height="40" stroke="black" fill="white" stroke-width="1" /><text x="1985.3978125000008" y="725.0" dominant-baseline="middle" text-anchor="middle" font-size="14px" font-family="sans\-serif:style=normal:variant=normal:weight=normal:stretch=normal:size=10.0">Rx(θ_2_14)</text><circle cx="2091.044843750001" cy="825.0" r="10.0" /><circle cx="2091.044843750001" cy="875.0" r="10.0" /><rect x="2048.221328125001" y="755.0" width="85.64703125000001" height="40" stroke="black" fill="white" stroke-width="1" /><text x="2091.044843750001" y="775.0" dominant-baseline="middle" text-anchor="middle" font-size="14px" font-family="sans\-serif:style=normal:variant=normal:weight=normal:stretch=normal:size=10.0">Rx(θ_2_15)</text><rect x="2153.8683593750006" y="805.0" width="85.64703125000001" height="40" stroke="black" fill="white" stroke-width="1" /><text x="2196.6918750000004" y="825.0" dominant-baseline="middle" text-anchor="middle" font-size="14px" font-family="sans\-serif:style=normal:variant=normal:weight=normal:stretch=normal:size=10.0">Rx(θ_2_16)</text><rect x="2153.8683593750006" y="855.0" width="85.64703125000001" height="40" stroke="black" fill="white" stroke-width="1" /><text x="2196.6918750000004" y="875.0" dominant-baseline="middle" text-anchor="middle" font-size="14px" font-family="sans\-serif:style=normal:variant=normal:weight=normal:stretch=normal:size=10.0">Rx(θ_2_17)</text></svg>